# xmcd
#
# Track frame offsets: 
#        150
#        17073
#        29730
#        43101
#        59523
#        73690
#        92722
#        103435
#        121910
#        135690
#        157648
#        171400
#        186014
#        202145
#
# Disc length: 2924 seconds
#
# Revision: 0
# Processed by: cddbd v1.5PL3 Copyright (c) Steve Scherf et al.
# Submitted via: ExactAudioCopy v0.95a4
#
DISCID=ce0b6a0e
DTITLE=leclaire - Rattle
DYEAR=2002
DGENRE=Country
TTITLE0=Heart Of America
TTITLE1=She Ain't From Here
TTITLE2=Any Old Time
TTITLE3=You Do That
TTITLE4=My Pretty Baby
TTITLE5=Our Love
TTITLE6=You're Runnin' Wild
TTITLE7=One True Friend
TTITLE8=Somebody's Cryin' Now
TTITLE9=Waiting For Me
TTITLE10=I'll Keep Rollin'
TTITLE11=Angel Wings
TTITLE12=It Won't Be Long
TTITLE13=You Do That (reprise)
EXTD=
EXTT0=
EXTT1=
EXTT2=
EXTT3=
EXTT4=
EXTT5=
EXTT6=
EXTT7=
EXTT8=
EXTT9=
EXTT10=
EXTT11=
EXTT12=
EXTT13=
PLAYORDER=
